<?xml version="1.0" encoding="UTF-8"?>
<svg width="176px" height="200px" viewBox="0 0 176 200" version="1.1" xmlns="http://www.w3.org/2000/svg" xmlns:xlink="http://www.w3.org/1999/xlink">
    <title>CTLogoOnly</title>
    <g id="CTLogoOnly" stroke="none" stroke-width="1" fill="none" fill-rule="evenodd">
        <g id="CTLogo">
            <path d="M149.793283,141.91132 C143.436847,149.655769 135.843597,155.71682 127.011901,160.082215 C118.175303,164.45333 108.794638,166.636845 98.869089,166.636845 C87.1528564,166.636845 76.2363863,163.611631 66.1115093,157.551397 C55.9866323,151.494432 47.9922764,143.353649 42.1382447,133.123327 C36.2801285,122.896275 33.3531126,111.823437 33.3531126,99.9072652 C33.3531126,87.9919109 36.2801285,76.9231589 42.1382447,66.69202 C42.2387256,66.5179599 42.3506433,66.3553404 42.4511242,66.1820975 L18.2768979,42 C16.5025529,44.5210114 14.8246041,47.1384506 13.2520377,49.8604892 C4.41543974,65.156532 0,81.8385183 0,99.9072652 C0,117.981732 4.41543974,134.664536 13.2520377,149.954858 C22.0837341,165.249267 34.0981415,177.412228 49.285457,186.446193 C64.4735894,195.485878 81.0014667,200 98.869089,200 C113.955107,200 128.249531,196.723911 141.752363,190.170916 C155.251926,183.616286 166.665899,174.484259 176,162.763394 L149.793283,141.91132" id="Fill-1" fill="#37A0CE"></path>
            <path d="M98.4306617,0 C80.4874809,0 63.8897105,4.47553043 48.6373505,13.4274098 C40.0808685,18.4488763 32.5482109,24.4942801 26,31.5210593 L49.7481345,55.2148513 C54.2339297,50.1917478 59.4334487,45.8962862 65.385249,42.3693915 C70.0334779,39.6135189 74.8876202,37.5026205 79.941113,36.0195076 L79.941113,130.042479 C80.2446507,130.293757 80.721287,130.66699 81.3382069,131.10243 C85.6623887,134.157053 97.2247146,140.398896 109.77723,131.10243 C110.233357,130.76521 110.690304,130.40098 111.148072,130.021198 L111.148072,34.6919088 C115.827475,35.6339965 120.412535,37.0892805 124.89833,39.0872267 C133.369493,42.8678549 140.794682,48.2388188 147.177998,55.1992999 L172,32.8208293 C162.626427,22.2802512 151.514486,14.1730587 138.655151,8.50416261 C125.794997,2.83444804 112.384372,0 98.4306617,0 Z" id="Fill-9" fill="#2A5998"></path>
        </g>
    </g>
</svg>