<?xml version="1.0" encoding="UTF-8"?>
<svg width="24px" height="19px" viewBox="0 0 24 19" version="1.1" xmlns="http://www.w3.org/2000/svg" xmlns:xlink="http://www.w3.org/1999/xlink">
    <title>StackedLine</title>
    <g id="StackedLine" stroke="none" stroke-width="1" fill="none" fill-rule="evenodd">
        <g id="Bold-L" fill="#000000" fill-rule="nonzero">
            <path d="M3.45409836,19.1767043 L20.6257869,19.1767043 C22.8693443,19.1767043 24.0773148,17.9764934 24.0773148,15.7564994 L24.0773148,3.47197934 C24.0773148,1.25199016 22.8693443,0.0439232787 20.6257869,0.0439232787 L3.45409836,0.0439232787 C1.22625311,0.0439232787 0.0103622951,1.2441341 0.0103622951,3.47197934 L0.0103622951,15.7564994 C0.0103622951,17.9764934 1.22625311,19.1767043 3.45409836,19.1767043 Z M3.68942689,16.8547324 C2.80300885,16.8547324 2.33233574,16.4154386 2.33233574,15.4897868 L2.33233574,3.7387 C2.33233574,2.80519377 2.80300885,2.36591279 3.68942689,2.36591279 L20.3982984,2.36591279 C21.2690525,2.36591279 21.7553574,2.80519377 21.7553574,3.7387 L21.7553574,9.08080852 L19.3471279,9.08080852 C18.9156066,9.08080852 18.6646623,9.28477705 18.531318,9.6691459 L17.9743246,11.2537416 L15.9269279,5.06441508 C15.7228951,4.43686164 14.7971967,4.42902164 14.5305082,5.08011115 L12.8910485,9.08080852 L10.7102754,9.08080852 C10.2866744,9.08080852 10.0278098,9.29261705 9.90228951,9.6691459 L9.3374882,11.2537416 L7.29007541,5.06441508 C7.09394689,4.43686164 6.16829672,4.42902164 5.90159213,5.08011115 L4.26208426,9.08080852 L2.34017574,9.08080852 L2.34017574,10.55558 L4.74059738,10.55558 C5.15635836,10.55558 5.38384689,10.3594675 5.54858328,9.96724262 L6.5762177,7.46483672 L8.63932656,14.0385498 C8.82759902,14.6739561 9.83169738,14.6661113 10.0513459,14.015017 L11.1495725,10.55558 L13.3225056,10.55558 C13.7383148,10.55558 13.9658033,10.3594675 14.1383475,9.96724262 L15.2129738,7.44915672 L17.2682426,14.0385498 C17.4644033,14.6739561 18.4685016,14.6661113 18.6802459,14.015017 L19.7784885,10.55558 L21.7553574,10.55558 L21.7553574,15.4897868 C21.7553574,16.4154386 21.2690525,16.8547324 20.3982984,16.8547324 L3.68942689,16.8547324 Z" id="Shape"></path>
        </g>
        <path d="M2.3295082,12.6114754 L4.65419554,13.5862817 C5.03961057,13.747897 5.48456094,13.5869794 5.67744182,13.2162218 L9.29209836,6.26809174 C9.49684485,5.87452592 9.98187281,5.72145761 10.3754386,5.9262041 C10.5352497,6.0093433 10.6624761,6.14378758 10.7366792,6.30793869 L13.5187305,12.4623551 C13.7014702,12.8666093 14.1773226,13.0461823 14.5815768,12.8634426 C14.732342,12.7952905 14.8583846,12.682246 14.9424795,12.5397577 L18.025284,7.3163355 C18.2507719,6.93427479 18.7432874,6.80734744 19.1253481,7.03283533 C19.2633082,7.11425785 19.3737723,7.23507048 19.442548,7.3797513 L21.9295082,12.6114754 L21.9295082,12.6114754" id="Line-2" stroke="#060606" stroke-width="1.76721311" stroke-linecap="square"></path>
    </g>
</svg>